# xmcd
#
# Track frame offsets:
#	150
#	19399
#	37115
#	54827
#	73028
#	93193
#	111142
#	132287
#	148378
#	170584
#	183722
#	201425
#	220019
#	242659
#	258744
#	276347
#	293632
#	311300
#	328172
#
# Disc length: 4598 seconds
#
# Revision: 3
# Processed by: cddbd v1.5.2PL0 Copyright (c) Steve Scherf et al.
# Submitted via: audiograbber 1.83.01
#
DISCID=2f11f413
DTITLE=Various Artist - ZMPB2014-2
DYEAR=2014
DGENRE=KARAOKE
TTITLE0=Cheryl Cole - I Don't Care
TTITLE1=Cheryl Cole feat. Tinie Tempah - Crazy Stupid Love
TTITLE2=Christina Perri - Burning Gold
TTITLE3=Clean Bandit feat. Jess Glynne - Rather Be
TTITLE4=Clean Bandit feat. Sharna Bass - Extraordinary
TTITLE5=Clean Bandit feat. Stylo G - Come Over
TTITLE6=Coldplay - A Sky Full Of Stars
TTITLE7=David Guetta feat. Sam Martin - Lovers On The Sun
TTITLE8=Duke Dumont feat. Jax Jones - I Got U [Duet Version]
TTITLE9=DVBBS and Borgeous feat. Tinie Tempah - Tsunami (Jump)
TTITLE10=Ed Sheeran - Don't
TTITLE11=Ed Sheeran - Sing
TTITLE12=Ed Sheeran - Thinking Out Loud
TTITLE13=Ella Eyre - Comeback
TTITLE14=Ella Henderson - Ghost
TTITLE15=Ellie Goulding - Beating Heart
TTITLE16=Ellie Goulding - Goodness Gracoius
TTITLE17=Elyar Fox - A Billion Girls
TTITLE18=Elyar Fox - Do It All Over Again
EXTD=YEAR: 2014
EXTT0=
EXTT1=
EXTT2=
EXTT3=
EXTT4=
EXTT5=
EXTT6=
EXTT7=
EXTT8=
EXTT9=
EXTT10=
EXTT11=
EXTT12=
EXTT13=
EXTT14=
EXTT15=
EXTT16=
EXTT17=
EXTT18=
PLAYORDER=
